<?xml version="1.0" encoding="UTF-8" standalone="no"?>
<!-- Created with Inkscape (http://www.inkscape.org/) -->

<svg
   version="1.1"
   id="svg1"
   width="2048"
   height="2048"
   viewBox="0 0 2048 2048"
   xml:space="preserve"
   xmlns="http://www.w3.org/2000/svg"
   xmlns:svg="http://www.w3.org/2000/svg"><defs
     id="defs1" /><g
     id="g1"><path
       id="path9"
       style="display:inline;opacity:1;fill:#ffffff"
       d="m 1478.9434,579.45117 c -11.3191,0.0113 -24.3995,0.11914 -39.5118,0.11914 -56.9919,0 -97.8596,1.76185 -102.8554,4.43555 -7.7484,4.14682 -8.291,9.7442 -8.291,85.71484 0,72.89796 0.8056,82.08097 7.8046,89.08008 7.3176,7.31766 11.2533,7.4705 63.2129,2.44727 30.4758,-2.94628 72.5703,-6.65394 93.543,-8.24024 32.0864,-2.42692 39.7313,-4.4832 48.2148,-12.96679 9.7209,-9.7209 10.0821,-12.46853 10.0821,-76.70508 0,-79.32374 7.0344,-83.96404 -72.1992,-83.88477 z m -863.23051,0.11914 c -130.47478,0 -147.17647,3.26207 -175.13867,34.21289 -29.17401,32.29214 -28.43164,21.3311 -28.43164,420.0723 0,390.7148 -0.261,386.2313 24.32617,418.4668 12.47826,16.3596 40.04971,30.7335 68.80859,35.873 11.24001,2.0087 66.72165,3.1132 123.29297,2.4551 114.27431,-1.3293 129.67038,-4.2079 158.05469,-29.5586 29.1879,-26.0684 32.66016,-43.9449 32.66016,-168.1094 v -109.1269 h -90 -90 v 110.5703 c 0,80.2856 -1.40837,111.9806 -5.14258,115.7148 -6.95653,6.9566 -26.95501,6.5132 -32.9668,-0.7304 -3.46267,-4.1723 -4.54662,-43.5751 -3.74023,-136.0704 l 1.13476,-130.1992 110.35742,-1.1426 110.35743,-1.1445 0.0215,-236.71288 c 0.0191,-213.65878 -0.70222,-238.73048 -7.39844,-257.4121 -9.86573,-27.52423 -29.96432,-47.33612 -59.0664,-58.22461 -21.98826,-8.22687 -32.84131,-8.9336 -137.12891,-8.9336 z m 465.91211,0.1875 c -121.45712,0.19958 -131.61359,1.56789 -162.06641,21.85352 -8.33927,5.55505 -20.33002,19.74362 -26.64648,31.52929 l -11.48438,21.42969 -1.24023,241.07031 -1.23828,241.07228 h 108.5957 c 78.74968,0 110.01088,1.4132 113.74028,5.1426 3.7734,3.7734 5.1425,39.6814 5.1425,134.8496 0,123.8505 -0.3736,129.9064 -8.289,134.1426 -11.8768,6.3561 -22.0165,5.4879 -31.0157,-2.6563 -7.2,-6.516 -7.8378,-15.9271 -7.8378,-115.7148 v -108.6211 h -90.31059 -90.31055 l 1.38086,114.6425 c 1.37503,114.0296 1.44298,114.7583 12.58008,136.0723 14.00859,26.8094 38.83116,44.871 71.23047,51.8301 30.17943,6.4822 189.68933,7.7362 226.08003,1.7773 51.4983,-8.4327 81.4263,-33.9934 91.6465,-78.2695 3.1828,-13.7888 4.8457,-81.1793 4.8457,-196.3809 V 1038.1406 H 1178 c -78.6189,0 -109.8434,-1.4137 -113.5723,-5.1426 -7.3915,-7.3913 -7.3915,-355.18075 0,-362.57222 6.6432,-6.6432 30.2143,-6.6432 36.8575,0 3.8162,3.81617 5.1425,46.3812 5.1425,165 V 995.2832 h 90 90 V 835.34766 c 0,-179.6373 -1.5633,-191.82456 -28.4316,-221.56446 -9.4649,-10.47654 -23.8148,-19.9682 -38.4902,-25.45898 -21.4729,-8.03402 -32.8232,-8.73903 -137.8809,-8.56641 z M 618.78711,665.75 c 3.68973,0.209 7.39221,0.69292 10.21875,1.40234 l 10.2793,2.58008 v 179.0625 c 0,133.55528 -1.30671,180.36738 -5.14258,184.20308 -2.82857,2.8285 -11.47143,5.1426 -19.20508,5.1426 -11.03013,0 -14.5651,-2.0784 -16.4043,-9.6426 -1.28953,-5.3034 -1.80963,-88.7147 -1.15429,-185.35738 L 598.57031,667.42578 608.65039,666 c 2.77166,-0.39232 6.44699,-0.459 10.13672,-0.25 z M 1539.457,776.21875 c -20.4963,0.14839 -46.5161,2.55906 -83.6152,7.08789 -28.2152,3.44437 -61.1623,6.26367 -73.2148,6.26367 -12.0525,0 -23.1097,1.19556 -24.5723,2.65821 -1.4626,1.46263 12.1984,10.00021 30.3574,18.97265 36.1069,17.84054 55.2101,20.22982 101.5879,12.70117 14.1428,-2.29583 44.9989,-6.13465 68.5703,-8.52929 62.688,-6.3686 79.4537,-9.20943 77.0723,-13.0625 -1.1699,-1.89292 -15.8925,-8.70071 -32.7149,-15.12891 -19.8974,-7.60324 -37.1183,-11.15367 -63.4707,-10.96289 z m -184.3769,86.20703 v 315.00002 315 h 90 90 v -315 -315.00002 h -90 z" /><path
       id="path3"
       style="display:inline;fill:#ffffff;fill-opacity:0.989637;stroke-width:6.66667;stroke-linejoin:bevel"
       d="m 1024,161.32617 -11.5,2.60547 -671.13867,156.32227 38.68359,43.74218 643.95508,-0.0137 643.9531,0.0137 38.6856,-43.74218 L 1035.5,163.93164 Z M 382,393.99609 v 140 h 1284 v -140 z M 382,1540 v 140 h 1284 v -140 z m -40.63867,170 v 140 H 1706.6387 v -140 z" /><rect
       style="display:none;fill:#ffffff;fill-opacity:0.989637;stroke-width:6.66667;stroke-linejoin:bevel"
       id="rect9"
       width="913.37952"
       height="186.56303"
       x="579.30829"
       y="-1533.8721"
       transform="rotate(90)" /><rect
       style="display:none;fill:#ffffff;fill-opacity:0.989637;stroke-width:6.66667;stroke-linejoin:bevel"
       id="rect10"
       width="913.37952"
       height="186.56303"
       x="579.30829"
       y="-1117.2821"
       transform="rotate(90)" /><rect
       style="display:none;fill:#ffffff;fill-opacity:0.989637;stroke-width:6.66667;stroke-linejoin:bevel"
       id="rect11"
       width="913.37952"
       height="186.56303"
       x="579.30829"
       y="-700.69202"
       transform="rotate(90)" /></g></svg>
